Coordinates
version=1
nRows=19
nColumns=63
inDegrees=yes

Units are S.I. units (second, meters, Newtons, ...)
If the header above contains a line with 'inDegrees', this indicates whether rotational values are in degrees (yes) or radians (no).

endheader
time	pelvis_tilt	pelvis_list	pelvis_rotation	pelvis_tx	pelvis_ty	pelvis_tz	hip_flexion_r	hip_adduction_r	hip_rotation_r	knee_angle_r	knee_angle_r_beta	ankle_angle_r	subtalar_angle_r	mtp_angle_r	hip_flexion_l	hip_adduction_l	hip_rotation_l	knee_angle_l	knee_angle_l_beta	ankle_angle_l	subtalar_angle_l	mtp_angle_l	L5_S1_Flex_Ext	L5_S1_Lat_Bending	L5_S1_axial_rotation	L4_L5_Flex_Ext	L4_L5_Lat_Bending	L4_L5_axial_rotation	L3_L4_Flex_Ext	L3_L4_Lat_Bending	L3_L4_axial_rotation	L2_L3_Flex_Ext	L2_L3_Lat_Bending	L2_L3_axial_rotation	L1_L2_Flex_Ext	L1_L2_Lat_Bending	L1_L2_axial_rotation	L1_T12_Flex_Ext	L1_T12_Lat_Bending	L1_T12_axial_rotation	Abs_r3	Abs_r2	Abs_r1	Abs_t1	Abs_t2	neck_flexion	neck_bending	neck_rotation	arm_flex_r	arm_add_r	arm_rot_r	elbow_flex_r	pro_sup_r	wrist_flex_r	wrist_dev_r	arm_flex_l	arm_add_l	arm_rot_l	elbow_flex_l	pro_sup_l	wrist_flex_l	wrist_dev_l
0.000000	-1.525144	-2.960331	86.669885	0.253524	0.909059	0.670687	6.653538	-3.662687	-14.984126	12.724770	0.222089	34.959575	16.047391	0.000000	7.000114	2.803363	7.298334	10.515913	0.183537	30.749692	-12.529208	0.000000	0.127550	-0.290741	1.898156	0.236873	-0.386686	2.016790	0.209552	-0.706908	2.016790	0.145777	-0.706908	1.660886	0.118443	-0.592879	1.542252	0.072882	-0.450358	1.423617	0.911077	-3.288921	10.556973	0.000000	0.000000	27.596034	-4.093935	3.465841	5.477305	-9.440187	32.054327	48.428724	66.200642	3.561745	0.052224	25.206660	-7.683386	73.317493	41.236477	72.689511	6.881544	-10.458808
0.016667	-1.564074	-3.151479	87.703781	0.251415	0.908610	0.671436	6.600795	-3.729612	-15.602028	12.066319	0.210597	35.188588	16.238341	0.000000	7.426704	3.036784	8.128359	10.771168	0.187992	31.413583	-11.928189	0.000000	0.164388	-0.286904	1.734477	0.305284	-0.381583	1.842882	0.270072	-0.697580	1.842882	0.187879	-0.697580	1.517667	0.152650	-0.585056	1.409262	0.093931	-0.444415	1.300858	1.174204	-3.245521	9.646640	0.000000	0.000000	27.749364	-4.824043	3.428674	5.465798	-9.567028	32.072588	48.293384	66.632125	3.133704	-0.068618	25.681962	-7.398422	75.403016	40.761181	69.147311	6.719232	-9.604631
0.033333	-1.576276	-3.317934	88.579653	0.249611	0.908206	0.672084	6.567909	-3.771684	-16.120437	11.549052	0.201569	35.395530	16.341456	0.000000	7.800386	3.221125	8.848016	11.034545	0.192589	31.922235	-11.502271	0.000000	0.193206	-0.280756	1.594929	0.358804	-0.373405	1.694612	0.317419	-0.682629	1.694612	0.220816	-0.682629	1.395563	0.179412	-0.572517	1.295880	0.110398	-0.434891	1.196197	1.380054	-3.175964	8.870516	0.000000	0.000000	27.871270	-5.396736	3.327480	5.437402	-9.703008	32.071227	48.263134	67.132253	2.885386	-0.089434	26.042985	-7.169764	76.960619	40.441614	66.431970	6.680726	-8.822028
0.050000	-1.565747	-3.461764	89.306787	0.248095	0.907843	0.672642	6.554556	-3.792093	-16.543649	11.161110	0.194798	35.581628	16.366335	0.000000	8.125601	3.360521	9.456324	11.304100	0.197294	32.293726	-11.226655	0.000000	0.214778	-0.272765	1.478221	0.398863	-0.362778	1.570610	0.352858	-0.663201	1.570610	0.245469	-0.663201	1.293444	0.199442	-0.556223	1.201055	0.122724	-0.422513	1.108666	1.534135	-3.085575	8.221424	0.000000	0.000000	27.964664	-5.825084	3.170150	5.393673	-9.846354	32.051744	48.329184	67.679372	2.800761	-0.016068	26.301421	-6.994541	78.043826	40.265123	64.449381	6.753047	-8.103065
0.066667	-1.536484	-3.585034	89.894475	0.246848	0.907519	0.673118	6.560412	-3.794027	-16.875959	10.890635	0.190077	35.748110	16.322573	0.000000	8.406793	3.459110	9.952302	11.577890	0.202072	32.546136	-11.076541	0.000000	0.229872	-0.263404	1.383064	0.426896	-0.350327	1.469506	0.377657	-0.640440	1.469506	0.262721	-0.640440	1.210181	0.213459	-0.537133	1.123740	0.131349	-0.408013	1.037298	1.641954	-2.979677	7.692190	0.000000	0.000000	28.032464	-6.122155	2.964572	5.336167	-9.995294	32.015641	48.482748	68.251825	2.863798	0.145636	26.468963	-6.869880	78.706163	40.219058	63.105441	6.923216	-7.439811
0.083333	-1.492486	-3.689812	90.352004	0.245851	0.907228	0.673522	6.585153	-3.780675	-17.121661	10.725768	0.187200	35.896205	16.219770	0.000000	8.648405	3.521028	10.334972	11.853971	0.206891	32.697543	-11.027130	0.000000	0.239262	-0.253142	1.308168	0.444333	-0.336679	1.389928	0.393083	-0.615489	1.389928	0.273452	-0.615489	1.144647	0.222178	-0.516207	1.062886	0.136714	-0.392117	0.981126	1.709022	-2.863592	7.275636	0.000000	0.000000	28.077583	-6.301018	2.718636	5.266439	-10.148053	31.964417	48.715037	68.827954	3.058463	0.389837	26.557300	-6.792911	79.001155	40.290766	62.306046	7.178256	-6.824334
0.100000	-1.437751	-3.778164	90.688664	0.245088	0.906968	0.673864	6.628453	-3.755226	-17.285052	10.654651	0.185959	36.027141	16.067522	0.000000	8.854880	3.550414	10.603353	12.130399	0.211715	32.766026	-11.053621	0.000000	0.243717	-0.242450	1.252241	0.452606	-0.322459	1.330506	0.400402	-0.589493	1.330506	0.278544	-0.589493	1.095710	0.226315	-0.494404	1.017445	0.139260	-0.375555	0.939180	1.740845	-2.742645	6.964586	0.000000	0.000000	28.102937	-6.374742	2.440234	5.186044	-10.302861	31.899574	49.017264	69.386105	3.368727	0.710690	26.578126	-6.760763	78.982325	40.467596	61.957092	7.505187	-6.248703
0.116667	-1.376276	-3.852157	90.913744	0.244539	0.906734	0.674154	6.689989	-3.720870	-17.370426	10.665424	0.186147	36.142146	15.875427	0.000000	9.030661	3.551403	10.756465	12.405230	0.216512	32.769663	-11.131215	0.000000	0.244009	-0.231799	1.213993	0.453149	-0.308293	1.289868	0.400882	-0.563597	1.289868	0.278878	-0.563597	1.062244	0.226587	-0.472685	0.986369	0.139427	-0.359057	0.910495	1.742932	-2.622160	6.751865	0.000000	0.000000	28.111441	-6.356396	2.137253	5.096540	-10.457942	31.822611	49.380641	69.904621	3.778557	1.102354	26.543132	-6.770564	78.703198	40.736896	61.964475	7.891030	-5.704984
0.133333	-1.312058	-3.913859	91.036533	0.244187	0.906523	0.674402	6.769437	-3.680794	-17.382078	10.746229	0.187557	36.242449	15.653082	0.000000	9.180192	3.528133	10.793328	12.676521	0.221247	32.726534	-11.235113	0.000000	0.240910	-0.221660	1.192135	0.447393	-0.294807	1.266643	0.395790	-0.538943	1.266643	0.275335	-0.538943	1.043118	0.223709	-0.452008	0.968610	0.137656	-0.343351	0.894101	1.720793	-2.507458	6.630297	0.000000	0.000000	28.106009	-6.259048	1.817584	4.999481	-10.611525	31.735030	49.796380	70.361846	4.271923	1.558984	26.464010	-6.819443	78.217300	41.086015	62.234089	8.322807	-5.185247
0.150000	-1.249097	-3.965335	91.066319	0.244013	0.906331	0.674617	6.866471	-3.638189	-17.324304	10.885208	0.189983	36.329277	15.410086	0.000000	9.307916	3.484740	10.712962	12.942328	0.225886	32.654716	-11.340515	0.000000	0.235189	-0.212502	1.185376	0.436770	-0.282628	1.259462	0.386393	-0.516677	1.259462	0.268798	-0.516677	1.037204	0.218397	-0.433334	0.963118	0.134387	-0.329166	0.889032	1.679934	-2.403865	6.592705	0.000000	0.000000	28.089557	-6.095769	1.489117	4.896424	-10.761835	31.638330	50.255693	70.736123	4.832791	2.074738	26.352451	-6.904529	77.578154	41.502300	62.671832	8.787539	-4.681558
0.166667	-1.191388	-4.008653	91.012393	0.244000	0.906154	0.674808	6.980768	-3.596242	-17.201398	11.070502	0.193217	36.403859	15.156034	0.000000	9.418275	3.425362	10.514387	13.200708	0.230396	32.572289	-11.422620	0.000000	0.227620	-0.204797	1.192425	0.422713	-0.272380	1.266952	0.373957	-0.497943	1.266952	0.260147	-0.497943	1.043372	0.211368	-0.417622	0.968846	0.130062	-0.317230	0.894319	1.625866	-2.316704	6.631913	0.000000	0.000000	28.065001	-5.879626	1.159742	4.788924	-10.907102	31.534012	50.749792	71.005796	5.445132	2.643773	26.220147	-7.022951	76.839287	41.973100	63.183599	9.272247	-4.185987
0.183333	-1.158359	-4.050677	90.870845	0.244121	0.905976	0.675023	7.121524	-3.575270	-17.020772	11.292825	0.197097	36.409273	14.885451	0.000000	9.527070	3.370005	10.177973	13.453077	0.234800	32.520640	-11.436259	0.000000	0.220186	-0.200598	1.215780	0.408907	-0.266796	1.291766	0.361743	-0.487735	1.291766	0.251650	-0.487735	1.063808	0.204465	-0.409060	0.987821	0.125814	-0.310727	0.911835	1.572765	-2.269210	6.761805	0.000000	0.000000	28.036672	-5.614874	0.859352	4.689024	-11.052728	31.462909	51.257358	71.070403	6.015197	3.273975	26.180532	-7.180613	76.410203	42.470230	63.137640	9.882149	-3.526815
0.200000	-1.139689	-4.097971	90.679660	0.244359	0.905796	0.675237	7.291842	-3.563254	-16.814312	11.533715	0.201301	36.437505	14.694589	0.000000	9.642531	3.301413	9.695394	13.701052	0.239128	32.511596	-11.336812	0.000000	0.214518	-0.199347	1.246634	0.398382	-0.265131	1.324549	0.352432	-0.484691	1.324549	0.245173	-0.484691	1.090805	0.199202	-0.406507	1.012890	0.122576	-0.308788	0.934976	1.532284	-2.255048	6.933406	0.000000	0.000000	28.015067	-5.369548	0.569984	4.573456	-11.179694	31.328089	51.805913	70.919175	6.668360	3.991399	26.132635	-7.373572	75.921233	43.008668	63.059605	10.406968	-2.913547
0.216667	-1.150755	-4.134289	90.395703	0.244780	0.905631	0.675451	7.482539	-3.562715	-16.455770	11.786330	0.205710	36.481088	14.486318	0.000000	9.731500	3.239202	9.112607	13.910188	0.242779	32.528822	-11.220065	0.000000	0.208647	-0.203265	1.295500	0.387478	-0.270342	1.376469	0.342786	-0.494218	1.376469	0.238463	-0.494218	1.133563	0.193750	-0.414498	1.052594	0.119221	-0.314857	0.971625	1.490345	-2.299374	7.205185	0.000000	0.000000	27.996971	-5.105235	0.289143	4.457635	-11.293694	31.203314	52.372398	70.462758	7.304894	4.737388	26.116103	-7.592738	75.476339	43.532816	63.017492	10.904040	-2.458699
0.233333	-1.180682	-4.165693	90.059094	0.245302	0.905481	0.675662	7.673439	-3.564735	-16.014971	12.004678	0.209521	36.524989	14.289203	0.000000	9.813001	3.162941	8.288365	14.098315	0.246062	32.644649	-10.836009	0.000000	0.203661	-0.210016	1.350991	0.378218	-0.279322	1.435427	0.334594	-0.510634	1.435427	0.232764	-0.510634	1.182117	0.189119	-0.428266	1.097680	0.116372	-0.325315	1.013243	1.454727	-2.375748	7.513804	0.000000	0.000000	27.981439	-4.847867	0.053725	4.345392	-11.386533	31.065527	52.937420	69.820364	7.963849	5.534581	26.039883	-7.846057	74.900656	44.099862	62.878499	11.290741	-1.965261
0.250000	-1.220669	-4.211215	89.744114	0.245815	0.905302	0.675957	7.900082	-3.584641	-15.652752	12.241036	0.213646	36.611664	14.218213	0.000000	9.935379	3.084393	7.425827	14.308157	0.249724	32.870493	-10.292774	0.000000	0.201472	-0.218351	1.403191	0.374154	-0.290407	1.490890	0.330999	-0.530899	1.490890	0.230263	-0.530899	1.227792	0.187087	-0.445262	1.140092	0.115121	-0.338226	1.052393	1.439097	-2.470032	7.804126	0.000000	0.000000	27.968490	-4.582355	-0.111421	4.243546	-11.458326	30.896896	53.462058	69.186414	8.629423	6.313783	25.991855	-8.109215	74.517275	44.670794	62.114932	11.528947	-1.440048
0.266667	-1.278013	-4.251475	89.410779	0.246354	0.905125	0.676287	8.123677	-3.613429	-15.250029	12.447679	0.217253	36.706886	14.159243	0.000000	10.056558	3.004838	6.428835	14.497697	0.253033	33.210790	-9.520936	0.000000	0.199498	-0.228908	1.458006	0.370487	-0.304448	1.549132	0.327754	-0.556567	1.549132	0.228006	-0.556567	1.275756	0.185253	-0.466789	1.184630	0.113993	-0.354579	1.093505	1.424991	-2.589454	8.108994	0.000000	0.000000	27.957207	-4.307937	-0.225135	4.174052	-11.524599	30.807430	53.926439	68.452467	9.211250	7.018624	25.925026	-8.367543	74.185089	45.202203	61.003857	11.712989	-0.908808
0.283333	-1.356940	-4.278667	89.046783	0.246921	0.904968	0.676620	8.324297	-3.641766	-14.687737	12.599434	0.219902	36.774800	13.966121	0.000000	10.149325	2.940506	5.402538	14.630393	0.255349	33.615182	-8.660843	0.000000	0.196693	-0.241485	1.515140	0.365279	-0.321175	1.609837	0.323147	-0.587147	1.609837	0.224801	-0.587147	1.325748	0.182649	-0.492436	1.231052	0.112391	-0.374060	1.136355	1.404961	-2.731727	8.426757	0.000000	0.000000	27.949463	-4.036560	-0.275845	4.147029	-11.584537	30.838842	54.298330	67.419690	9.678697	7.629099	25.829514	-8.630383	73.976933	45.706448	59.271694	11.652795	-0.446704
0.300000	-1.441392	-4.311284	88.755005	0.247392	0.904787	0.676951	8.499244	-3.681035	-14.235837	12.697329	0.221610	36.831084	13.840010	0.000000	10.259980	2.885946	4.396541	14.759918	0.257609	34.085815	-7.654874	0.000000	0.195293	-0.255431	1.563737	0.362678	-0.339723	1.661471	0.320847	-0.621054	1.661471	0.223200	-0.621054	1.368270	0.181349	-0.520874	1.270537	0.111590	-0.395662	1.172803	1.394958	-2.889484	8.697038	0.000000	0.000000	27.945933	-3.833180	-0.376162	4.109429	-11.623250	30.835456	54.631316	66.535071	10.027064	8.251097	25.687942	-8.857891	73.747441	46.162738	57.443759	11.523583	0.106966
